# xmcd
#
# Track frame offsets:
#       150
#       13405
#       28780
#       41539
#       58100
#       78445
#       92030
#       105592
#       120092
#       134762
#       149165
#       166642
#       181122
#       194537
#       209775
#       224597
#       237312
#       254970
#
# Disc length: 3667 seconds
#
# Revision: 0
# Processed by: cddbd v1.4PL0 Copyright (c) Steve Scherf et al.
# Submitted via: WhereIsIt 3.25
#
DISCID=170e5112
DTITLE=Percy Sledge - Briliant collection
DYEAR=1900
DGENRE=
TTITLE0=When a man loves a woman
TTITLE1=Walkin' in the sun
TTITLE2=Behind closed doors
TTITLE3=Make it good and make it last
TTITLE4=The good love
TTITLE5=I believe in you
TTITLE6=My special prayer
TTITLE7=I'll be your everything
TTITLE8=if this is the last time
TTITLE9=Hard to be friends
TTITLE10=Blue water
TTITLE11=Love among people
TTITLE12=Take time to know her
TTITLE13=Out of left field
TTITLE14=Warm and tender love
TTITLE15=It tears me up
TTITLE16=If loving you is wrong
TTITLE17=You send me
EXTD=
EXTT0=
EXTT1=
EXTT2=
EXTT3=
EXTT4=
EXTT5=
EXTT6=
EXTT7=
EXTT8=
EXTT9=
EXTT10=
EXTT11=
EXTT12=
EXTT13=
EXTT14=
EXTT15=
EXTT16=
EXTT17=
PLAYORDER=
